<svg width="339" height="74" viewBox="0 0 339 74" fill="none" xmlns="http://www.w3.org/2000/svg">
<rect width="339" height="74" rx="5" fill="black"/>
<mask id="mask0_2_30" style="mask-type:alpha" maskUnits="userSpaceOnUse" x="0" y="0" width="339" height="74">
<rect width="339" height="74" rx="5" fill="black"/>
</mask>
<g mask="url(#mask0_2_30)">
<circle cx="305.5" cy="42.5" r="78" stroke="#333333"/>
<circle cx="284.5" cy="47.5" r="36" stroke="#333333"/>
<circle cx="30.5" cy="25.5" r="48" stroke="#333333"/>
<circle cx="36.5" cy="31.5" r="22" stroke="#333333"/>
<circle cx="18.5" cy="15.5" r="10" stroke="#333333"/>
</g>
<path d="M135.781 33.208H130.597V35.8H134.917V38.104H130.597V40.696H135.781V43H128.293V30.904H135.781V33.208ZM146.263 36.664L150.547 43H147.667L144.643 38.392L141.619 43H138.739L143.023 36.664L139.009 30.904H141.907L144.643 35.152L147.379 30.904H150.277L146.263 36.664ZM158.115 30.904C159.639 30.904 160.785 31.27 161.553 32.002C162.333 32.734 162.723 33.712 162.723 34.936C162.723 36.028 162.357 36.976 161.625 37.78C160.893 38.572 159.915 38.968 158.691 38.968H156.099V43H153.795V30.904H158.115ZM158.403 36.664C158.967 36.664 159.441 36.502 159.825 36.178C160.221 35.854 160.419 35.44 160.419 34.936C160.419 34.384 160.227 33.958 159.843 33.658C159.471 33.358 158.991 33.208 158.403 33.208H156.099V36.664H158.403ZM168.27 40.696H173.166V43H165.966V30.904H168.27V40.696ZM177.693 32.47C178.929 31.234 180.423 30.616 182.175 30.616C183.927 30.616 185.421 31.234 186.657 32.47C187.893 33.706 188.511 35.2 188.511 36.952C188.511 38.704 187.893 40.198 186.657 41.434C185.421 42.67 183.927 43.288 182.175 43.288C180.423 43.288 178.929 42.67 177.693 41.434C176.457 40.198 175.839 38.704 175.839 36.952C175.839 35.2 176.457 33.706 177.693 32.47ZM179.313 39.814C180.105 40.594 181.059 40.984 182.175 40.984C183.291 40.984 184.239 40.594 185.019 39.814C185.811 39.022 186.207 38.068 186.207 36.952C186.207 35.836 185.811 34.888 185.019 34.108C184.239 33.316 183.291 32.92 182.175 32.92C181.059 32.92 180.105 33.316 179.313 34.108C178.533 34.888 178.143 35.836 178.143 36.952C178.143 38.068 178.533 39.022 179.313 39.814ZM201.107 43H198.299L195.581 38.968H194.195V43H191.891V30.904H196.211C197.735 30.904 198.881 31.27 199.649 32.002C200.429 32.734 200.819 33.712 200.819 34.936C200.819 35.812 200.573 36.61 200.081 37.33C199.589 38.038 198.911 38.524 198.047 38.788L201.107 43ZM194.195 33.208V36.664H196.499C197.063 36.664 197.537 36.502 197.921 36.178C198.317 35.854 198.515 35.44 198.515 34.936C198.515 34.384 198.323 33.958 197.939 33.658C197.567 33.358 197.087 33.208 196.499 33.208H194.195ZM211.989 33.208H206.805V35.8H211.125V38.104H206.805V40.696H211.989V43H204.501V30.904H211.989V33.208Z" fill="white"/>
<path d="M234 37H261" stroke="#333333" stroke-linecap="round"/>
<path d="M78 37L105 37" stroke="#333333" stroke-linecap="round"/>
<path d="M59 37L69 37" stroke="#333333" stroke-linecap="round"/>
<path d="M270 37L280 37" stroke="#333333" stroke-linecap="round"/>
<path d="M290 37L295 37" stroke="#333333" stroke-linecap="round"/>
<path d="M44 37L49 37" stroke="#333333" stroke-linecap="round"/>
</svg>
