<svg width="16" height="16" viewBox="0 0 16 16" fill="none" xmlns="http://www.w3.org/2000/svg">
<path d="M7.99996 12.3233L10.8286 9.4953C11.388 8.93586 11.7689 8.22313 11.9232 7.44723C12.0774 6.67132 11.9982 5.86709 11.6954 5.13622C11.3926 4.40536 10.88 3.78068 10.2222 3.34119C9.56439 2.90169 8.79106 2.66711 7.99996 2.66711C7.20887 2.66711 6.43553 2.90169 5.77775 3.34119C5.11997 3.78068 4.60728 4.40536 4.30451 5.13622C4.00174 5.86709 3.92249 6.67132 4.07677 7.44723C4.23106 8.22313 4.61195 8.93586 5.1713 9.4953L7.99996 12.3233ZM11.7713 10.438L7.99996 14.2093L4.22863 10.438C3.48278 9.69208 2.97485 8.74177 2.76909 7.70721C2.56332 6.67265 2.66896 5.60031 3.07263 4.62579C3.47631 3.65126 4.15989 2.81833 5.03695 2.23231C5.91401 1.64628 6.94514 1.3335 7.99996 1.3335C9.05478 1.3335 10.0859 1.64628 10.963 2.23231C11.84 2.81833 12.5236 3.65126 12.9273 4.62579C13.331 5.60031 13.4366 6.67265 13.2308 7.70721C13.0251 8.74177 12.5171 9.69208 11.7713 10.438ZM3.3333 14.6666H12.6666V16H3.3333V14.6666Z" fill="#FCFCFC"/>
</svg>
