<svg width="12" height="12" viewBox="0 0 12 12" fill="none" xmlns="http://www.w3.org/2000/svg">
<path d="M8.475 7.97496C8.96445 7.48546 9.29776 6.86182 9.43278 6.1829C9.5678 5.50397 9.49846 4.80026 9.23355 4.16074C8.96863 3.52122 8.52002 2.97461 7.94446 2.59005C7.3689 2.20548 6.69222 2.00021 6 2.00021C5.30778 2.00021 4.63111 2.20548 4.05554 2.59005C3.47998 2.97461 3.03138 3.52122 2.76646 4.16074C2.50154 4.80026 2.43221 5.50397 2.56723 6.1829C2.70225 6.86182 3.03555 7.48546 3.525 7.97496L6 10.45L8.475 7.97496ZM6 11.864L2.818 8.68196C2.18867 8.05262 1.76009 7.2508 1.58646 6.37789C1.41284 5.50497 1.50195 4.60018 1.84255 3.77791C2.18315 2.95565 2.75992 2.25285 3.49994 1.75838C4.23996 1.26392 5.10999 1 6 1C6.89002 1 7.76004 1.26392 8.50006 1.75838C9.24008 2.25285 9.81686 2.95565 10.1575 3.77791C10.4981 4.60018 10.5872 5.50497 10.4135 6.37789C10.2399 7.2508 9.81133 8.05262 9.182 8.68196L6 11.864ZM6.5 5.49996H8.5V6.49996H5.5V2.99996H6.5V5.49996Z" fill="#5B7D76"/>
</svg>
