<svg width="13" height="13" viewBox="0 0 13 13" fill="none" xmlns="http://www.w3.org/2000/svg">
<path d="M8.08983 3.90215L4.83983 2.27715L2.16671 3.42277V10.2738L4.91025 9.09836L8.16025 10.7234L10.8334 9.57665V2.72619L8.08983 3.9016V3.90215ZM1.08337 2.70831L4.87504 1.08331L8.12504 2.70831L11.5392 1.24527C11.5804 1.2276 11.6253 1.22045 11.67 1.22444C11.7147 1.22843 11.7576 1.24345 11.7951 1.26815C11.8325 1.29285 11.8632 1.32646 11.8844 1.36595C11.9057 1.40545 11.9167 1.4496 11.9167 1.49444V10.2916L8.12504 11.9166L4.87504 10.2916L1.46092 11.7547C1.4197 11.7724 1.37475 11.7795 1.33008 11.7755C1.28542 11.7715 1.24245 11.7565 1.20503 11.7318C1.1676 11.7071 1.13689 11.6735 1.11566 11.634C1.09443 11.5945 1.08333 11.5504 1.08337 11.5055V2.70831ZM3.25004 5.95831H4.33337V7.04165H3.25004V5.95831ZM5.41671 5.95831H6.50004V7.04165H5.41671V5.95831ZM8.66562 5.92419L9.33621 5.25415L9.91037 5.82831L9.24033 6.4989L9.91037 7.16948L9.33621 7.74365L8.66562 7.07361L7.99558 7.74365L7.42087 7.16948L8.09092 6.4989L7.42087 5.82885L7.99504 5.25415L8.66562 5.92419Z" fill="#D27C4A"/>
</svg>
